<svg id="visual" viewBox="0 0 900 600" width="900" height="600" xmlns="http://www.w3.org/2000/svg" xmlns:xlink="http://www.w3.org/1999/xlink" version="1.1"><rect x="0" y="0" width="900" height="600" fill="#FFFFFF"></rect><path d="M557 600L541.7 580C526.3 560 495.7 520 495.7 480C495.7 440 526.3 400 550.3 360C574.3 320 591.7 280 609.8 240C628 200 647 160 631.8 120C616.7 80 567.3 40 542.7 20L518 0L900 0L900 20C900 40 900 80 900 120C900 160 900 200 900 240C900 280 900 320 900 360C900 400 900 440 900 480C900 520 900 560 900 580L900 600Z" fill="#B1EC94" stroke-linecap="round" stroke-linejoin="miter"></path></svg>