<svg xmlns="http://www.w3.org/2000/svg" xmlns:xlink="http://www.w3.org/1999/xlink" width="500" zoomAndPan="magnify" viewBox="0 0 375 187.499995" height="250" preserveAspectRatio="xMidYMid meet" version="1.0"><defs><g/><clipPath id="74a24adf73"><path d="M 5.390625 44 L 118 44 L 118 166.804688 L 5.390625 166.804688 Z M 5.390625 44 " clip-rule="nonzero"/></clipPath><clipPath id="a325e48f7a"><path d="M 100 18.699219 L 130.308594 18.699219 L 130.308594 44 L 100 44 Z M 100 18.699219 " clip-rule="nonzero"/></clipPath><clipPath id="d5f7b9e8fe"><path d="M 104 18.699219 L 123 18.699219 L 123 31 L 104 31 Z M 104 18.699219 " clip-rule="nonzero"/></clipPath></defs><g fill="#3f3d56" fill-opacity="1"><g transform="translate(269.322359, 132.13392)"><g><path d="M 15.171875 0 C 14.0625 -0.964844 13.488281 -3.613281 13.488281 -6.019531 L 13.488281 -26.972656 L 24.179688 -1.347656 L 34.824219 -26.828125 L 34.824219 -6.019531 C 34.824219 -3.613281 34.246094 -0.964844 33.136719 0 L 47.347656 0 C 46.238281 -0.964844 45.660156 -3.5625 45.660156 -5.972656 L 45.660156 -40.507812 C 45.660156 -42.914062 46.238281 -45.515625 47.347656 -46.480469 L 34.824219 -46.480469 L 24.179688 -21.964844 L 13.488281 -46.480469 L 0.964844 -46.480469 C 2.070312 -45.515625 2.648438 -42.914062 2.648438 -40.507812 L 2.648438 -5.972656 C 2.648438 -3.5625 2.070312 -0.964844 0.964844 0 Z M 15.171875 0 "/></g></g></g><g fill="#3f3d56" fill-opacity="1"><g transform="translate(317.91383, 132.13392)"><g><path d="M 24.710938 0.722656 C 31.546875 0.722656 37.617188 -1.203125 41.328125 -5.296875 C 39.6875 -9.246094 38.195312 -14.351562 38.195312 -14.351562 C 38.195312 -14.351562 34.824219 -8.523438 26.492188 -8.523438 C 22.203125 -8.523438 18.207031 -10.164062 15.605469 -13.4375 C 13.582031 -18.160156 18.253906 -20.324219 24.082031 -20.324219 C 27.839844 -20.324219 31.644531 -18.6875 33.570312 -17.050781 L 33.570312 -27.695312 C 32.800781 -29.140625 29.429688 -30.394531 26.492188 -30.394531 C 18.832031 -30.394531 13.488281 -24.082031 14.015625 -15.992188 C 13.054688 -17.964844 12.523438 -20.375 12.523438 -23.214844 C 12.523438 -33.136719 19.074219 -38.003906 26.492188 -38.003906 C 34.824219 -38.003906 38.195312 -32.175781 38.195312 -32.175781 C 38.195312 -32.175781 39.6875 -37.28125 41.328125 -41.230469 C 37.617188 -45.324219 31.546875 -47.203125 24.710938 -47.203125 C 10.691406 -47.203125 1.6875 -36.460938 1.6875 -23.265625 C 1.6875 -10.066406 10.691406 0.722656 24.710938 0.722656 Z M 24.710938 0.722656 "/></g></g></g><g fill="#b1ec94" fill-opacity="1"><g transform="translate(130.103707, 132.13392)"><g><path d="M 0.964844 -46.480469 L 0.964844 -34.632812 C 3.324219 -36.847656 6.984375 -37.328125 9.34375 -37.328125 L 12.8125 -37.328125 L 12.8125 -6.019531 C 12.8125 -3.613281 12.234375 -0.964844 11.125 0 L 25.335938 0 C 24.226562 -0.964844 23.648438 -3.5625 23.648438 -5.972656 L 23.648438 -37.328125 L 27.261719 -37.328125 C 29.621094 -37.328125 33.28125 -36.847656 35.644531 -34.632812 L 35.644531 -46.480469 Z M 0.964844 -46.480469 "/></g></g></g><g fill="#b1ec94" fill-opacity="1"><g transform="translate(166.992802, 132.13392)"><g><path d="M 2.648438 -40.460938 L 2.648438 -6.019531 C 2.648438 -3.613281 2.070312 -0.964844 0.964844 0 L 15.171875 0 C 14.0625 -0.964844 13.488281 -3.5625 13.488281 -5.972656 L 13.488281 -25.960938 L 21.191406 -4.574219 C 22.109375 -2.359375 21.914062 -0.820312 21.191406 0 L 37.085938 0 C 35.304688 -0.914062 32.945312 -4.285156 30.25 -11.414062 L 27.503906 -18.6875 C 33.1875 -20.421875 37.230469 -24.949219 37.230469 -31.644531 C 37.230469 -41.375 28.707031 -46.480469 21.097656 -46.480469 L 0.964844 -46.480469 C 2.070312 -45.515625 2.648438 -42.867188 2.648438 -40.460938 Z M 13.488281 -25.960938 L 13.488281 -37.328125 L 20.46875 -37.328125 C 24.421875 -37.328125 26.492188 -34.632812 26.492188 -31.644531 C 26.492188 -28.996094 24.515625 -25.960938 20.375 -25.960938 Z M 13.488281 -25.960938 "/></g></g></g><g fill="#b1ec94" fill-opacity="1"><g transform="translate(205.471097, 132.13392)"><g><path d="M 0.964844 0 L 15.171875 0 C 14.0625 -0.964844 13.488281 -3.5625 13.488281 -5.972656 L 13.488281 -40.507812 C 13.488281 -42.914062 14.0625 -45.515625 15.171875 -46.480469 L 0.964844 -46.480469 C 2.070312 -45.515625 2.648438 -42.867188 2.648438 -40.460938 L 2.648438 -6.019531 C 2.648438 -3.613281 2.070312 -0.964844 0.964844 0 Z M 0.964844 0 "/></g></g></g><g fill="#b1ec94" fill-opacity="1"><g transform="translate(221.893061, 132.13392)"><g><path d="M 0.964844 0 L 15.171875 0 C 14.0625 -0.964844 13.488281 -3.5625 13.488281 -5.972656 L 13.488281 -24.035156 L 18.59375 -12.332031 C 19.171875 -11.992188 20.132812 -11.703125 21.046875 -11.703125 C 30.875 -11.703125 37.617188 -19.941406 37.617188 -29.429688 C 37.617188 -39.351562 30.441406 -46.480469 18.160156 -46.480469 L 0.964844 -46.480469 C 2.070312 -45.515625 2.648438 -42.867188 2.648438 -40.460938 L 2.648438 -6.019531 C 2.648438 -3.613281 2.070312 -0.964844 0.964844 0 Z M 18.976562 -37.328125 C 24.277344 -37.328125 26.78125 -33.476562 26.78125 -29.429688 C 26.78125 -24.902344 24.660156 -20.902344 19.988281 -20.902344 C 16.570312 -20.902344 14.882812 -22.734375 13.488281 -25.863281 L 13.488281 -37.328125 Z M 18.976562 -37.328125 "/></g></g></g><g clip-path="url(#74a24adf73)"><path fill="#b1ec94" d="M 98.316406 44.769531 C 93.722656 49.089844 89.066406 53.34375 84.421875 57.613281 C 79.78125 61.882812 75.15625 66.15625 70.5625 70.457031 C 65.96875 74.757812 61.425781 79.109375 56.945312 83.507812 L 53.605469 86.820312 L 50.261719 90.175781 L 46.988281 93.550781 C 45.910156 94.671875 44.835938 95.808594 43.773438 96.941406 C 41.65625 99.230469 39.582031 101.550781 37.558594 103.933594 C 35.535156 106.300781 33.578125 108.714844 31.679688 111.160156 C 27.890625 116.070312 24.324219 121.15625 21.144531 126.4375 C 19.570312 129.074219 18.078125 131.761719 16.730469 134.496094 C 15.394531 137.230469 14.191406 140.015625 13.261719 142.847656 C 12.792969 144.253906 12.378906 145.675781 12.054688 147.085938 C 11.75 148.492188 11.511719 149.914062 11.429688 151.273438 C 11.382812 151.960938 11.382812 152.632812 11.414062 153.289062 C 11.445312 153.945312 11.527344 154.570312 11.65625 155.175781 C 11.894531 156.378906 12.34375 157.402344 12.988281 158.214844 C 13.613281 159.03125 14.449219 159.65625 15.492188 160.070312 C 16.519531 160.503906 17.773438 160.726562 19.089844 160.792969 C 19.75 160.808594 20.421875 160.808594 21.113281 160.757812 C 21.449219 160.742188 21.804688 160.695312 22.15625 160.664062 C 22.511719 160.617188 22.863281 160.582031 23.21875 160.519531 C 24.632812 160.296875 26.042969 159.960938 27.472656 159.558594 C 30.316406 158.761719 33.144531 157.65625 35.90625 156.394531 C 38.683594 155.128906 41.382812 153.691406 44.0625 152.171875 C 46.746094 150.652344 49.363281 149.019531 51.933594 147.292969 C 54.503906 145.566406 57.039062 143.789062 59.53125 141.917969 L 60.460938 141.230469 L 61.375 140.511719 C 61.988281 140.03125 62.613281 139.566406 63.222656 139.085938 C 64.429688 138.113281 65.664062 137.152344 66.851562 136.144531 C 69.261719 134.175781 71.605469 132.128906 73.9375 130.050781 C 75.09375 128.996094 76.25 127.957031 77.371094 126.882812 C 77.933594 126.355469 78.511719 125.8125 79.074219 125.285156 L 80.761719 123.652344 C 82.992188 121.460938 85.160156 119.238281 87.3125 116.96875 C 89.449219 114.695312 91.539062 112.359375 93.578125 109.996094 C 95.617188 107.628906 97.59375 105.210938 99.503906 102.734375 C 101.414062 100.269531 103.261719 97.742188 105.027344 95.167969 C 106.796875 92.59375 108.449219 89.9375 110.023438 87.234375 C 111.582031 84.53125 113.011719 81.75 114.246094 78.871094 C 115.484375 75.992188 116.511719 73.03125 117.136719 69.945312 C 116.847656 73.078125 116.09375 76.183594 115.097656 79.191406 L 114.710938 80.308594 C 114.585938 80.675781 114.441406 81.0625 114.3125 81.429688 C 114.039062 82.179688 113.734375 82.917969 113.445312 83.652344 C 112.832031 85.125 112.191406 86.578125 111.515625 88.003906 C 108.785156 93.746094 105.496094 99.214844 101.929688 104.460938 C 100.128906 107.082031 98.265625 109.660156 96.324219 112.183594 C 94.378906 114.710938 92.375 117.175781 90.300781 119.589844 C 86.175781 124.4375 81.789062 129.058594 77.210938 133.503906 C 72.617188 137.9375 67.847656 142.175781 62.804688 146.140625 C 60.300781 148.140625 57.730469 150.042969 55.082031 151.882812 C 52.449219 153.722656 49.75 155.464844 46.972656 157.128906 L 45.925781 157.753906 L 44.867188 158.34375 C 44.160156 158.742188 43.453125 159.144531 42.730469 159.511719 C 42.007812 159.878906 41.300781 160.28125 40.5625 160.632812 C 39.839844 161 39.101562 161.351562 38.363281 161.703125 C 35.40625 163.09375 32.339844 164.324219 29.128906 165.285156 C 27.523438 165.765625 25.851562 166.148438 24.148438 166.421875 C 23.714844 166.484375 23.28125 166.550781 22.847656 166.597656 C 22.414062 166.644531 21.980469 166.691406 21.53125 166.726562 C 20.648438 166.804688 19.75 166.804688 18.832031 166.773438 C 17.003906 166.691406 15.074219 166.40625 13.195312 165.621094 C 12.25 165.238281 11.332031 164.742188 10.480469 164.101562 C 9.628906 163.476562 8.859375 162.710938 8.21875 161.878906 C 6.917969 160.199219 6.144531 158.230469 5.777344 156.359375 C 5.582031 155.417969 5.472656 154.488281 5.4375 153.5625 C 5.40625 152.652344 5.40625 151.738281 5.472656 150.859375 C 5.726562 147.324219 6.578125 144.046875 7.65625 140.910156 C 8.746094 137.777344 10.082031 134.785156 11.542969 131.875 C 13.003906 128.964844 14.609375 126.164062 16.3125 123.429688 C 19.734375 117.976562 23.507812 112.792969 27.554688 107.835938 C 29.578125 105.355469 31.648438 102.941406 33.800781 100.574219 C 35.953125 98.207031 38.136719 95.902344 40.402344 93.648438 C 41.527344 92.511719 42.667969 91.410156 43.808594 90.304688 L 47.261719 87.042969 L 50.746094 83.8125 L 54.261719 80.628906 C 58.984375 76.40625 63.769531 72.28125 68.636719 68.234375 C 73.503906 64.1875 78.417969 60.21875 83.378906 56.316406 C 88.277344 52.429688 93.273438 48.578125 98.316406 44.769531 Z M 98.316406 44.769531 " fill-opacity="1" fill-rule="nonzero"/></g><path fill="#3f3d56" d="M 106.601562 78.566406 C 106.378906 79.125 106.136719 79.703125 105.910156 80.261719 C 105.785156 80.597656 105.621094 80.917969 105.476562 81.238281 C 105.332031 81.574219 105.207031 81.894531 105.042969 82.230469 C 104.738281 82.882812 104.449219 83.539062 104.113281 84.195312 C 101.558594 89.425781 98.445312 94.574219 95.039062 99.550781 C 91.617188 104.523438 87.890625 109.355469 83.941406 114.007812 C 81.964844 116.34375 79.941406 118.632812 77.855469 120.871094 L 76.28125 122.550781 C 75.75 123.109375 75.222656 123.652344 74.691406 124.195312 C 73.628906 125.300781 72.539062 126.371094 71.460938 127.460938 C 69.277344 129.601562 67.0625 131.730469 64.765625 133.761719 C 63.640625 134.800781 62.46875 135.792969 61.3125 136.800781 C 60.734375 137.296875 60.140625 137.777344 59.5625 138.273438 L 58.679688 139.007812 L 57.796875 139.726562 C 55.433594 141.664062 52.992188 143.519531 50.535156 145.308594 C 48.078125 147.101562 45.542969 148.796875 42.972656 150.378906 L 42.007812 150.988281 L 41.027344 151.5625 C 40.386719 151.945312 39.726562 152.332031 39.070312 152.699219 C 38.410156 153.050781 37.769531 153.433594 37.09375 153.785156 C 36.433594 154.136719 35.777344 154.472656 35.101562 154.808594 C 34.941406 154.890625 34.765625 154.96875 34.605469 155.050781 C 27.039062 150.378906 20.710938 143.886719 16.261719 136.191406 C 14.929688 133.875 13.757812 131.441406 12.777344 128.929688 C 10.433594 122.933594 9.148438 116.390625 9.148438 109.5625 C 9.148438 80.039062 33.191406 56.09375 62.839844 56.09375 C 69.039062 56.09375 74.980469 57.132812 80.519531 59.070312 C 80.953125 59.214844 81.371094 59.375 81.789062 59.53125 C 91.859375 63.292969 100.46875 69.976562 106.601562 78.566406 Z M 106.601562 78.566406 " fill-opacity="1" fill-rule="nonzero"/><path fill="#b1ec94" d="M 116.527344 109.546875 C 116.527344 139.070312 92.484375 163.015625 62.839844 163.015625 C 56.800781 163.015625 50.984375 162.023438 45.574219 160.183594 C 45.652344 160.152344 45.71875 160.105469 45.796875 160.070312 L 46.890625 159.496094 L 47.964844 158.902344 C 50.839844 157.320312 53.667969 155.640625 56.398438 153.867188 C 59.144531 152.089844 61.828125 150.25 64.445312 148.332031 L 65.425781 147.613281 L 66.402344 146.875 C 67.046875 146.378906 67.703125 145.902344 68.347656 145.40625 C 69.617188 144.398438 70.917969 143.421875 72.167969 142.382812 C 74.707031 140.351562 77.164062 138.238281 79.589844 136.097656 C 80.792969 135.007812 82.015625 133.9375 83.1875 132.816406 C 83.78125 132.257812 84.375 131.714844 84.96875 131.15625 L 86.71875 129.476562 C 89.046875 127.21875 91.328125 124.902344 93.5625 122.535156 C 98.027344 117.800781 102.28125 112.855469 106.28125 107.644531 C 109.234375 103.773438 112.0625 99.757812 114.664062 95.519531 C 115.886719 99.996094 116.527344 104.699219 116.527344 109.546875 Z M 116.527344 109.546875 " fill-opacity="1" fill-rule="nonzero"/><path fill="#b1ec94" d="M 98.316406 44.769531 C 92.808594 49.679688 87.28125 54.574219 81.804688 59.515625 C 81.386719 59.355469 80.96875 59.195312 80.535156 59.054688 C 86.429688 54.253906 92.375 49.519531 98.316406 44.769531 Z M 98.316406 44.769531 " fill-opacity="1" fill-rule="nonzero"/><g clip-path="url(#a325e48f7a)"><path fill="#b1ec94" d="M 127.800781 24.601562 C 127.449219 24.921875 127.0625 25.273438 126.644531 25.625 C 119.949219 31.320312 100.675781 44.082031 100.019531 43.25 C 99.34375 42.417969 116.015625 26.441406 123.046875 21.164062 C 123.480469 20.828125 123.914062 20.523438 124.300781 20.25 C 125.296875 19.5625 126.292969 19.179688 127.175781 19.003906 C 128.605469 18.699219 129.746094 18.925781 130.019531 19.226562 C 130.019531 19.226562 130.035156 19.242188 130.035156 19.242188 C 130.035156 19.242188 130.035156 19.261719 130.050781 19.261719 C 130.292969 19.597656 130.257812 20.746094 129.664062 22.074219 C 129.28125 22.890625 128.703125 23.785156 127.800781 24.601562 Z M 127.800781 24.601562 " fill-opacity="1" fill-rule="nonzero"/></g><path fill="#b1ec94" d="M 106.136719 45.667969 L 102.554688 41.21875 L 105.269531 39.0625 L 107.164062 44.851562 Z M 106.136719 45.667969 " fill-opacity="1" fill-rule="nonzero"/><path fill="#b1ec94" d="M 123.640625 44.066406 L 116.335938 30.199219 L 122.375 25.386719 L 125.167969 42.851562 Z M 123.640625 44.066406 " fill-opacity="1" fill-rule="nonzero"/><g clip-path="url(#d5f7b9e8fe)"><path fill="#b1ec94" d="M 104.320312 20.089844 L 116.335938 30.199219 L 122.375 25.386719 L 105.847656 18.875 Z M 104.320312 20.089844 " fill-opacity="1" fill-rule="nonzero"/></g><path fill="#b1ec94" d="M 98.972656 36.773438 L 102.554688 41.21875 L 105.269531 39.0625 L 100 35.957031 Z M 98.972656 36.773438 " fill-opacity="1" fill-rule="nonzero"/></svg>